<svg xmlns="http://www.w3.org/2000/svg" width="16" height="16" fill="none"><path d="M8 4 6.586 2.586A2 2 0 0 0 5.172 2H1a1 1 0 0 0-1 1v10a1 1 0 0 0 1 1h14a1 1 0 0 0 1-1V5a1 1 0 0 0-1-1H8z" fill="#FFB900"/><path d="M8 4 6.586 5.414A2 2 0 0 1 5.172 6H0v7a1 1 0 0 0 1 1h14a1 1 0 0 0 1-1V5a1 1 0 0 0-1-1H8z" fill="#FFD75E"/><path d="M8 4 6.586 5.414A2 2 0 0 1 5.172 6H0v7a1 1 0 0 0 1 1h14a1 1 0 0 0 1-1V5a1 1 0 0 0-1-1H8z" fill="url(#a)"/><path d="M1 13.5c-.373 0-.71-.142-.973-.367.061.492.477.863.973.867h14c.505 0 .905-.38.973-.867-.262.226-.6.367-.973.367H1z" fill="#BF5712"/><path opacity=".4" d="M6.836 5.914 8.75 4H8L6.586 5.414A2 2 0 0 1 5.172 6H0v.5h5.422a2 2 0 0 0 1.414-.586z" fill="#fff"/><defs><linearGradient id="a" x1="0" y1="4" x2="0" y2="14" gradientUnits="userSpaceOnUse"><stop stop-color="#fff" stop-opacity=".01"/><stop offset=".999" stop-color="#FFD75E" stop-opacity=".3"/></linearGradient></defs></svg>